# xmcd CD database file
#
# Track frame offsets:
#	150
#	14578
#	31818
#	48338
#	59023
#	69325
#	85380
#	97210
#	109810
#	122993
#	138180
#	151038
#
# Disc length: 2243 seconds
#
# Revision: 0
# Processed by: cddbd v1.5.1PL2 Copyright (c) Steve Scherf et al.
# Submitted via: CDex 1.51
#
DISCID=a208c10c
DTITLE=Various Artist - Today's Country Classics [CD1]
DYEAR=1994
DGENRE=Country
TTITLE0=Walk On Faith
TTITLE1=Honky Tonker
TTITLE2=Two Dozen Roses
TTITLE3=From A Jack To A King
TTITLE4=I'm A One Woman Man
TTITLE5=Lovin' Only Me
TTITLE6=I Feel Fine
TTITLE7=I'm Still Crazy
TTITLE8=Fourteen Minutes Old
TTITLE9=Home
TTITLE10=Walk On By
TTITLE11=Just One Kiss
EXTD=YEAR: 1994
EXTT0=
EXTT1=
EXTT2=
EXTT3=
EXTT4=
EXTT5=
EXTT6=
EXTT7=
EXTT8=
EXTT9=
EXTT10=
EXTT11=
PLAYORDER=
